<svg width="47" height="48" viewBox="0 0 47 48" fill="none" xmlns="http://www.w3.org/2000/svg">
<path d="M14.3334 38C11.7667 38 9.69004 40.1 9.69004 42.6667C9.69004 45.2334 11.7667 47.3334 14.3334 47.3334C16.9 47.3334 19 45.2334 19 42.6667C19 40.1 16.9 38 14.3334 38ZM0.333374 0.666687V5.33335H5.00004L13.4 23.0434L10.25 28.76C9.87671 29.4134 9.66671 30.1834 9.66671 31C9.66671 33.5667 11.7667 35.6667 14.3334 35.6667H42.3334V31H15.3134C14.9867 31 14.73 30.7434 14.73 30.4167L14.8 30.1367L16.9 26.3334H34.2834C36.0334 26.3334 37.5734 25.3767 38.3667 23.93L46.72 8.78669C46.9067 8.46002 47 8.06335 47 7.66669C47 6.38335 45.95 5.33335 44.6667 5.33335H10.1567L7.96337 0.666687H0.333374ZM37.6667 38C35.1 38 33.0234 40.1 33.0234 42.6667C33.0234 45.2334 35.1 47.3334 37.6667 47.3334C40.2334 47.3334 42.3334 45.2334 42.3334 42.6667C42.3334 40.1 40.2334 38 37.6667 38Z" fill="black" fill-opacity="0.8"/>
</svg>
