<svg width="84" height="71" viewBox="0 0 84 71" fill="none" xmlns="http://www.w3.org/2000/svg">
<path d="M66.2837 39.764C64.8374 37.0853 61.5667 35.494 58.7187 36.3573C58.0156 34.262 55.9775 32.8713 53.8815 32.554C51.7856 32.2366 49.6496 32.8386 47.7183 33.7533C46.9532 32.982 46.0123 32.4294 44.9854 32.1484C43.9585 31.8674 42.8801 31.8674 41.8532 32.1483C40.8263 32.4292 39.8854 32.9817 39.1203 33.7529C38.3552 34.5242 37.7915 35.4884 37.4832 36.5533C37.4152 36.9882 37.2264 37.3924 36.9403 37.7153C36.5917 37.9485 36.1832 38.0641 35.77 38.0466C33.0733 38.266 29.7224 39.9133 27.533 41.6306C25.8509 42.9373 25.308 45.2333 25.1523 47.3146C24.8764 51.44 25.9844 56.9186 28.7123 60.064C31.6804 63.4846 36.2061 65.0946 40.616 65.23C45.026 65.3653 49.3826 64.1706 53.57 62.7333C60.8324 60.2273 68.1082 56.7833 73.6707 51.146C76.0025 48.7893 78.2319 46.0126 75.2549 43.32C74.0667 42.2466 72.8118 41.2853 71.2499 40.9026C70.8805 40.814 66.702 40.6366 66.8622 41.332C66.7391 40.7839 66.5444 40.2562 66.2837 39.764Z" fill="#725858"/>
<path d="M41.288 65.7106C41.0595 65.7106 40.8326 65.7106 40.6071 65.7106C35.6409 65.5613 31.1865 63.6246 28.3874 60.3953C25.4727 57.0353 24.4403 51.398 24.7117 47.3006C24.8986 44.4773 25.7619 42.4473 27.2749 41.276C29.4154 39.6146 32.8641 37.8366 35.7299 37.5986H35.7967C36.0956 37.6121 36.3919 37.536 36.6511 37.3793C36.8387 37.1548 36.9634 36.8802 37.0115 36.586L37.056 36.4413C37.3787 35.3278 37.9623 34.3168 38.7534 33.5007C39.5444 32.6845 40.5179 32.0891 41.5848 31.7689C42.6517 31.4487 43.7781 31.4139 44.8611 31.6676C45.9442 31.9213 46.9494 32.4554 47.785 33.2213C50.01 32.204 52.0926 31.8213 53.926 32.1106C56.2133 32.456 58.149 33.8933 58.9678 35.844C60.4605 35.5647 61.999 35.773 63.3751 36.4407C64.7513 37.1085 65.8986 38.2034 66.6619 39.5773C66.8353 39.9086 66.9841 40.2534 67.1069 40.6086C68.3885 40.2213 71.2098 40.4546 71.3477 40.4873C73.0343 40.898 74.3559 41.9386 75.5307 43.0026C76.5542 43.936 77.0882 44.9486 77.1149 46.0453C77.1683 48.0006 75.6331 49.83 73.9688 51.5193C69.1628 56.3866 62.7236 60.1013 53.6946 63.214C50.0411 64.432 45.7202 65.7106 41.288 65.7106ZM43.3706 32.4233C42.8962 32.4224 42.4236 32.4851 41.9644 32.61C41.0179 32.8817 40.1514 33.3978 39.444 34.111C38.7366 34.8243 38.2109 35.7121 37.9149 36.6933L37.8748 36.8286C37.7891 37.3058 37.5635 37.743 37.2296 38.0793C36.8328 38.3718 36.3573 38.5238 35.8723 38.5133H35.81C33.1089 38.7326 29.8426 40.4266 27.8 42.0086C26.5051 43.012 25.7664 44.8086 25.5973 47.3473C25.3436 51.118 26.3182 56.6106 29.0416 59.7513C31.6804 62.794 35.9035 64.6186 40.6116 64.7633C45.1461 64.894 49.6228 63.5826 53.4142 62.276C62.3142 59.21 68.6421 55.5606 73.3458 50.796C74.8632 49.256 76.265 47.6133 76.2249 46.0173C76.1982 45.1866 75.7799 44.4166 74.9478 43.6606C73.8575 42.676 72.6427 41.71 71.1386 41.3273C70.6446 41.22 67.899 41.1826 67.2804 41.444C67.2516 41.5421 67.1927 41.6274 67.1129 41.6869C67.0331 41.7463 66.9369 41.7765 66.8391 41.7728C66.7412 41.7691 66.6473 41.7316 66.5719 41.6663C66.4964 41.6009 66.4436 41.5113 66.4216 41.4113C66.3046 40.9061 66.1203 40.4207 65.8742 39.9693C64.4903 37.4073 61.3886 36.0073 58.8121 36.782C58.7029 36.8149 58.5858 36.8028 58.4849 36.7481C58.384 36.6935 58.3068 36.6004 58.2692 36.488C57.664 34.6866 55.9018 33.31 53.788 32.9926C52.0481 32.7266 50.0589 33.1186 47.8695 34.1546C47.7888 34.1926 47.6991 34.2044 47.6119 34.1886C47.5247 34.1728 47.444 34.1301 47.38 34.066C46.2878 33.0097 44.8564 32.4232 43.3706 32.4233Z" fill="#093F68"/>
<path d="M0.975433 48.6026H12.3719C12.3719 48.6026 21.4098 34.318 27.9113 36.4693C43.8868 41.78 49.8276 45.014 53.8726 47.2446C55.7238 48.2666 54.1174 52.1493 54.1174 52.1493C61.4428 48.9526 68.4974 45.1122 75.2059 40.6693C78.7214 38.336 84.3151 41.5746 82.7709 45.6626C81.2268 49.7506 60.3874 66.0606 50.9178 68.7206C41.4482 71.3806 1.42934 68.9026 1.42934 68.9026L0.975433 48.6026Z" fill="#FFC9B0"/>
<path d="M32.7307 70.438C18.7176 70.438 2.43949 69.4486 1.38929 69.3833C1.27596 69.3762 1.16952 69.3239 1.09175 69.2371C1.01399 69.1503 0.97079 69.0357 0.970995 68.9166L0.525995 48.6026C0.525065 48.5404 0.536001 48.4787 0.558163 48.421C0.580325 48.3633 0.613262 48.3108 0.655042 48.2666C0.69528 48.2212 0.744244 48.1852 0.798705 48.1611C0.853165 48.137 0.911887 48.1252 0.970995 48.1266H12.1316C13.3331 46.26 21.659 33.9073 28.0404 36.026C44.2651 41.4206 50.1702 44.6826 54.0729 46.8386C55.617 47.688 55.2432 49.9793 54.865 51.3233C61.8297 48.1969 68.5504 44.5036 74.9656 40.2773C77.2618 38.756 80.1632 39.442 81.8409 40.9073C83.345 42.2233 83.8434 44.0666 83.1759 45.84C81.5739 50.04 60.6277 66.4806 51.0291 69.1733C47.6426 70.13 40.536 70.438 32.7307 70.438ZM1.84764 68.478C6.10629 68.7253 42.0089 70.746 50.7977 68.282C59.9469 65.7153 80.8307 49.4893 82.3526 45.504C82.8866 44.104 82.495 42.704 81.2846 41.6353C79.8918 40.4173 77.3731 39.806 75.4507 41.0753C68.715 45.5288 61.6355 49.383 54.2865 52.5973C54.2047 52.6303 54.1155 52.6373 54.03 52.6173C53.9445 52.5974 53.8666 52.5515 53.8059 52.4853C53.7449 52.4192 53.7039 52.3356 53.688 52.2451C53.6722 52.1546 53.6822 52.0612 53.7169 51.9766C53.7169 51.944 55.1142 48.4673 53.6724 47.674C49.7964 45.532 43.9358 42.298 27.7867 36.9406C21.6813 34.9106 12.8436 48.7333 12.7546 48.8733C12.7139 48.9382 12.6584 48.9913 12.5931 49.028C12.5278 49.0647 12.4548 49.0837 12.3808 49.0833H1.42934L1.84764 68.478Z" fill="#093F68"/>
<path d="M49.2001 54.6833C47.0285 54.6833 44.3051 54.1326 40.8296 53.4326L40.4914 53.3626C35.5948 52.332 30.7514 51.0408 25.98 49.494C25.9241 49.4756 25.8723 49.4459 25.8275 49.4065C25.7826 49.3671 25.7456 49.3188 25.7186 49.2645C25.6915 49.2101 25.6749 49.1506 25.6697 49.0895C25.6646 49.0284 25.6709 48.9668 25.6885 48.9083C25.706 48.8498 25.7344 48.7955 25.7719 48.7484C25.8095 48.7014 25.8555 48.6626 25.9073 48.6342C25.9592 48.6058 26.0159 48.5884 26.0742 48.583C26.1324 48.5776 26.1911 48.5843 26.247 48.6027C30.987 50.1475 35.7993 51.4372 40.665 52.4666L41.0032 52.5366C47.7761 53.904 51.5052 54.66 53.7836 51.8833C53.8154 51.8236 53.8592 51.772 53.9121 51.7321C53.9649 51.6921 54.0255 51.6649 54.0896 51.6522C54.1536 51.6395 54.2195 51.6417 54.2826 51.6587C54.3457 51.6756 54.4045 51.7069 54.4548 51.7503C54.5052 51.7937 54.5458 51.8482 54.5738 51.9098C54.6019 51.9715 54.6167 52.0389 54.6172 52.1072C54.6177 52.1755 54.6038 52.2431 54.5767 52.3052C54.5495 52.3674 54.5097 52.4225 54.46 52.4666C53.125 54.0906 51.4562 54.6833 49.2001 54.6833Z" fill="#093F68"/>
<path d="M77.6 2.36065C77.6 2.36065 71.6592 -0.906012 61.7402 4.39065C54.1396 8.45065 52.7467 17.8167 52.5064 21.9653C52.2973 18.6567 50.7264 12.0066 42.1424 7.05998C30.2564 0.213985 20.8091 8.69332 20.8091 8.69332C20.8091 8.69332 20.5154 20.85 35.7121 24.0187C43.7533 25.694 47.9719 25.596 50.1657 25.134C51.6787 29.7633 50.01 39.4 50.01 39.4L54.1262 38.9333C55.3188 34.612 54.5712 26.8 54.2464 24.0747C81.4181 24.49 77.6 2.36065 77.6 2.36065Z" fill="white"/>
<path d="M50.01 39.8666C49.9489 39.8664 49.8886 39.8531 49.8327 39.8274C49.7769 39.8017 49.7266 39.7642 49.6851 39.7173C49.6373 39.6645 49.602 39.6007 49.5819 39.531C49.5618 39.4614 49.5575 39.3877 49.5694 39.316C49.5694 39.2227 51.1225 30.244 49.8631 25.6473C47.6381 26.03 43.4195 26.0813 35.6231 24.4573C20.235 21.2513 20.3552 8.79132 20.3596 8.66532C20.3609 8.59949 20.3754 8.53469 20.4023 8.47517C20.4291 8.41565 20.4677 8.36277 20.5154 8.31998C20.6133 8.23599 30.3365 -0.285349 42.3515 6.63065C48.8574 10.364 51.4295 15.082 52.413 18.7033C53.165 14.0367 55.3366 7.26532 61.5355 3.95665C71.5435 -1.39135 77.5555 1.79132 77.8047 1.92665C77.8648 1.95971 77.9169 2.00676 77.957 2.06419C77.9971 2.12162 78.0241 2.18791 78.0361 2.25799C78.0939 2.60799 79.4467 10.84 74.2491 17.2707C70.3198 22.1333 63.7605 24.5646 54.7403 24.5273C55.1097 27.878 55.6837 34.934 54.549 39.0453C54.5241 39.1335 54.4749 39.212 54.4076 39.2709C54.3403 39.3299 54.2579 39.3666 54.1707 39.3766L50.0545 39.8433L50.01 39.8666ZM50.1657 24.6487C50.2585 24.6481 50.3491 24.6779 50.4249 24.7339C50.5007 24.79 50.5579 24.8695 50.5885 24.9613C51.9235 29.026 50.8911 36.628 50.5484 38.868L53.7747 38.4853C54.8471 34.1313 54.0728 26.4126 53.8058 24.112C53.7976 24.0461 53.8028 23.9791 53.8212 23.9156C53.8397 23.852 53.8708 23.7933 53.9126 23.7433C53.9566 23.6956 54.009 23.6574 54.0671 23.631C54.1251 23.6045 54.1876 23.5904 54.2508 23.5893C63.2487 23.7247 69.7502 21.396 73.5727 16.6687C78.0227 11.1573 77.373 4.06865 77.1995 2.66865C76.1003 2.20199 70.5245 0.20465 61.9449 4.79198C54.4867 8.77732 53.1695 18.1387 52.9514 21.9793C52.9446 22.0982 52.8947 22.2098 52.812 22.2913C52.7293 22.3729 52.62 22.4182 52.5064 22.418C52.3936 22.4183 52.2849 22.3736 52.2023 22.293C52.1197 22.2125 52.0693 22.102 52.0614 21.984C51.8523 18.6147 50.2503 12.2493 41.9288 7.45665C31.2488 1.31532 22.5179 7.87198 21.2541 8.90332C21.2897 10.5553 22.0818 20.6866 35.8011 23.5473C43.9357 25.2413 48.0564 25.0873 50.0812 24.6626C50.1065 24.6605 50.1319 24.6621 50.1568 24.6673L50.1657 24.6487Z" fill="#093F68"/>
<path d="M47.2243 40.5666C47.2243 40.5666 48.2033 37.426 52.324 37.272C56.4447 37.118 57.526 39.4186 57.526 39.4186" fill="#725858"/>
<path d="M47.2243 41.0333C47.1773 41.0347 47.1305 41.0268 47.0863 41.01C46.9742 40.9715 46.8813 40.888 46.8279 40.7778C46.7745 40.6675 46.765 40.5396 46.8015 40.422C46.846 40.282 47.9274 36.9687 52.3106 36.8053C56.6939 36.642 57.8731 39.106 57.9265 39.2133C57.9784 39.3247 57.9861 39.4532 57.9477 39.5704C57.9093 39.6877 57.828 39.7842 57.7218 39.8387C57.6156 39.8931 57.4931 39.9011 57.3813 39.8608C57.2694 39.8206 57.1774 39.7354 57.1255 39.624C57.0855 39.5446 56.0842 37.5986 52.3418 37.7573C48.5993 37.916 47.6559 40.702 47.647 40.73C47.6149 40.8201 47.5571 40.8975 47.4814 40.9518C47.4058 41.0061 47.316 41.0346 47.2243 41.0333Z" fill="#093F68"/>
<path d="M56.2088 20.8593C56.1324 20.8595 56.0571 20.839 55.9904 20.7998C55.9237 20.7606 55.8677 20.704 55.8279 20.6355C55.7881 20.5671 55.7658 20.489 55.7632 20.4088C55.7605 20.3287 55.7776 20.2492 55.8128 20.178C55.8662 20.0706 61.1528 9.6453 72.4424 5.9493C72.4985 5.93055 72.5576 5.92365 72.6162 5.92901C72.6749 5.93437 72.732 5.95188 72.7841 5.98052C72.8363 6.00917 72.8825 6.04839 72.9201 6.0959C72.9577 6.14341 72.9859 6.19827 73.0031 6.2573C73.0379 6.3755 73.0265 6.50333 72.9714 6.61272C72.9163 6.7221 72.8221 6.80407 72.7094 6.84064C61.7758 10.4153 56.6538 20.5046 56.6049 20.6073C56.5673 20.6834 56.5105 20.7471 56.4406 20.7916C56.3707 20.836 56.2905 20.8595 56.2088 20.8593Z" fill="#093F68"/>
<path d="M50.01 22.9546C49.9479 22.9545 49.8865 22.9407 49.8298 22.9142C49.7731 22.8877 49.7223 22.849 49.6807 22.8006C42.5607 14.6293 24.2756 10.0093 24.0932 9.96731C23.9752 9.93884 23.8728 9.86238 23.8085 9.75473C23.7442 9.64708 23.7234 9.51708 23.7505 9.39331C23.7777 9.26954 23.8506 9.16215 23.9532 9.09476C24.0559 9.02737 24.1799 9.00551 24.2979 9.03398C27.7682 9.94911 31.1855 11.0725 34.5329 12.3986C41.951 15.3386 47.2732 18.6193 50.3526 22.1473C50.4321 22.2384 50.4738 22.3588 50.4688 22.4821C50.4638 22.6054 50.4125 22.7216 50.3259 22.8053C50.2855 22.8511 50.2367 22.8879 50.1824 22.9136C50.1281 22.9392 50.0695 22.9532 50.01 22.9546Z" fill="#093F68"/>
</svg>
