<svg width="59" height="79" viewBox="0 0 59 79" fill="none" xmlns="http://www.w3.org/2000/svg">
<path d="M46.7457 0.646484H12.8025C7.79669 0.646484 3.73865 4.16042 3.73865 8.49508V70.5049C3.73865 74.8396 7.79669 78.3535 12.8025 78.3535H46.7457C51.7515 78.3535 55.8096 74.8396 55.8096 70.5049V8.49508C55.8096 4.16042 51.7515 0.646484 46.7457 0.646484Z" fill="white"/>
<path d="M46.7506 78.7769H12.8026C10.2698 78.7746 7.84154 77.9024 6.05061 76.3516C4.25968 74.8008 3.25241 72.6981 3.24982 70.505V8.49508C3.25241 6.30191 4.25968 4.19922 6.05061 2.64841C7.84154 1.09761 10.2698 0.225386 12.8026 0.223145H46.7506C49.2834 0.225386 51.7116 1.09761 53.5026 2.64841C55.2935 4.19922 56.3008 6.30191 56.3034 8.49508V70.505C56.3008 72.6981 55.2935 74.8008 53.5026 76.3516C51.7116 77.9024 49.2834 78.7746 46.7506 78.7769ZM12.8026 1.06981C10.5291 1.07205 8.34956 1.85508 6.742 3.2471C5.13443 4.63912 4.23017 6.52646 4.22758 8.49508V70.505C4.23017 72.4736 5.13443 74.3609 6.742 75.7529C8.34956 77.145 10.5291 77.928 12.8026 77.9302H46.7506C49.024 77.928 51.2036 77.145 52.8112 75.7529C54.4188 74.3609 55.323 72.4736 55.3256 70.505V8.49508C55.323 6.52646 54.4188 4.63912 52.8112 3.2471C51.2036 1.85508 49.024 1.07205 46.7506 1.06981H12.8026Z" fill="#093F68"/>
<path d="M48.0119 8.63055H11.5461C9.60213 8.63055 8.02618 9.99519 8.02618 11.6786V64.1931C8.02618 65.8764 9.60213 67.2411 11.5461 67.2411H48.0119C49.9559 67.2411 51.5319 65.8764 51.5319 64.1931V11.6786C51.5319 9.99519 49.9559 8.63055 48.0119 8.63055Z" fill="white"/>
<path d="M48.0119 67.6644H11.5412C10.4789 67.6632 9.46048 67.297 8.70973 66.6461C7.95898 65.9953 7.53729 65.113 7.53729 64.193V11.6743C7.53729 10.7548 7.95914 9.87291 8.71003 9.2227C9.46091 8.5725 10.4793 8.20721 11.5412 8.20721H48.0119C49.0738 8.20721 50.0923 8.5725 50.8431 9.2227C51.594 9.87291 52.0159 10.7548 52.0159 11.6743V64.193C52.0159 65.113 51.5942 65.9953 50.8434 66.6461C50.0927 67.297 49.0743 67.6632 48.0119 67.6644ZM11.5412 9.05388C10.739 9.055 9.97008 9.33144 9.40284 9.82262C8.8356 10.3138 8.51635 10.9797 8.51506 11.6743V64.193C8.51506 64.8884 8.83373 65.5554 9.40111 66.0475C9.96849 66.5396 10.7382 66.8166 11.5412 66.8177H48.0119C48.815 66.8166 49.5847 66.5396 50.1521 66.0475C50.7194 65.5554 51.0381 64.8884 51.0381 64.193V11.6743C51.0368 10.9797 50.7176 10.3138 50.1503 9.82262C49.5831 9.33144 48.8141 9.055 48.0119 9.05388H11.5412Z" fill="#093F68"/>
<path d="M23.0593 5.32433C23.4346 5.32433 23.7389 5.06088 23.7389 4.73589C23.7389 4.41091 23.4346 4.14746 23.0593 4.14746C22.684 4.14746 22.3798 4.41091 22.3798 4.73589C22.3798 5.06088 22.684 5.32433 23.0593 5.32433Z" fill="#093F68"/>
<path d="M37.1734 5.15923H26.3055C26.1759 5.15923 26.0515 5.11462 25.9598 5.03523C25.8682 4.95584 25.8167 4.84817 25.8167 4.73589C25.8167 4.62362 25.8682 4.51594 25.9598 4.43655C26.0515 4.35716 26.1759 4.31256 26.3055 4.31256H37.1734C37.3031 4.31256 37.4274 4.35716 37.5191 4.43655C37.6108 4.51594 37.6623 4.62362 37.6623 4.73589C37.6623 4.84817 37.6108 4.95584 37.5191 5.03523C37.4274 5.11462 37.3031 5.15923 37.1734 5.15923Z" fill="#093F68"/>
<path d="M29.7766 75.1828C31.564 75.1828 33.013 73.928 33.013 72.3803C33.013 70.8325 31.564 69.5778 29.7766 69.5778C27.9891 69.5778 26.5402 70.8325 26.5402 72.3803C26.5402 73.928 27.9891 75.1828 29.7766 75.1828Z" fill="#093F68"/>
<path d="M29.7766 75.6061C29.0398 75.6061 28.3195 75.4169 27.7069 75.0624C27.0943 74.708 26.6168 74.2042 26.3348 73.6147C26.0529 73.0253 25.9791 72.3767 26.1229 71.751C26.2666 71.1252 26.6214 70.5504 27.1424 70.0993C27.6634 69.6482 28.3272 69.3409 29.0498 69.2165C29.7724 69.092 30.5215 69.1559 31.2022 69.4C31.8829 69.6442 32.4647 70.0576 32.874 70.5881C33.2834 71.1186 33.5018 71.7423 33.5018 72.3803C33.5006 73.2355 33.1077 74.0553 32.4093 74.66C31.711 75.2647 30.7642 75.605 29.7766 75.6061ZM29.7766 70.0012C29.2332 70.0012 28.7019 70.1407 28.2501 70.4021C27.7983 70.6635 27.4461 71.0351 27.2382 71.4698C27.0302 71.9046 26.9758 72.3829 27.0818 72.8444C27.1878 73.3059 27.4495 73.7298 27.8338 74.0626C28.218 74.3953 28.7076 74.6219 29.2405 74.7137C29.7735 74.8055 30.3259 74.7584 30.828 74.5783C31.33 74.3982 31.7591 74.0933 32.061 73.702C32.3629 73.3108 32.5241 72.8508 32.5241 72.3803C32.5241 71.7493 32.2346 71.1442 31.7194 70.698C31.2041 70.2518 30.5052 70.0012 29.7766 70.0012Z" fill="#093F68"/>
<path d="M1.37738 21.576H12.739V23.3752C12.739 24.6799 12.1405 25.9311 11.0751 26.8536C10.0098 27.7761 8.56484 28.2944 7.0582 28.2944C5.55155 28.2944 4.10661 27.7761 3.04125 26.8536C1.97589 25.9311 1.37738 24.6799 1.37738 23.3752V21.576Z" fill="#F56132"/>
<path d="M7.0582 28.7135C5.42313 28.7124 3.85533 28.1497 2.69871 27.149C1.54208 26.1482 0.891077 24.7911 0.888489 23.3753V21.5761C0.888489 21.4638 0.939996 21.3562 1.03168 21.2768C1.12336 21.1974 1.24771 21.1528 1.37737 21.1528H12.739C12.8687 21.1528 12.993 21.1974 13.0847 21.2768C13.1764 21.3562 13.2279 21.4638 13.2279 21.5761V23.3753C13.2253 24.7911 12.5743 26.1482 11.4177 27.149C10.2611 28.1497 8.69326 28.7124 7.0582 28.7135ZM1.86626 21.9994V23.3753C1.86626 24.5676 2.41326 25.7111 3.38694 26.5543C4.36062 27.3974 5.68121 27.8711 7.0582 27.8711C8.43519 27.8711 9.75578 27.3974 10.7295 26.5543C11.7031 25.7111 12.2501 24.5676 12.2501 23.3753V21.9994H1.86626Z" fill="#093F68"/>
<path d="M12.739 21.576H24.1007V23.3752C24.1007 24.6799 23.5022 25.9311 22.4368 26.8536C21.3714 27.7761 19.9265 28.2944 18.4198 28.2944C16.9132 28.2944 15.4683 27.7761 14.4029 26.8536C13.3375 25.9311 12.739 24.6799 12.739 23.3752V21.576Z" fill="#FFBC0E"/>
<path d="M18.4149 28.7135C16.7807 28.7113 15.2142 28.1481 14.0586 27.1475C12.903 26.1469 12.2527 24.7904 12.2501 23.3753V21.5761C12.2501 21.4638 12.3016 21.3562 12.3933 21.2768C12.485 21.1974 12.6093 21.1528 12.739 21.1528H24.0958C24.2254 21.1528 24.3498 21.1974 24.4415 21.2768C24.5331 21.3562 24.5846 21.4638 24.5846 21.5761V23.3753C24.5821 24.7911 23.931 26.1482 22.7744 27.149C21.6178 28.1497 20.05 28.7124 18.4149 28.7135ZM13.2279 21.9994V23.3753C13.2693 24.5432 13.8342 25.6513 14.8029 26.4647C15.7716 27.2782 17.068 27.7331 18.4174 27.7331C19.7668 27.7331 21.0632 27.2782 22.0319 26.4647C23.0006 25.6513 23.5655 24.5432 23.6069 23.3753V21.9994H13.2279Z" fill="#093F68"/>
<path d="M24.0958 21.5761H35.4574V23.3752C35.4561 24.6791 34.857 25.9293 33.7918 26.8509C32.7266 27.7725 31.2824 28.2901 29.7766 28.2901C28.2699 28.2901 26.825 27.7719 25.7596 26.8494C24.6943 25.9268 24.0958 24.6756 24.0958 23.371V21.5718V21.5761Z" fill="#F56132"/>
<path d="M29.7766 28.7135C28.1415 28.7124 26.5737 28.1497 25.4171 27.149C24.2605 26.1482 23.6095 24.7911 23.6069 23.3753V21.5761C23.6069 21.4638 23.6584 21.3562 23.7501 21.2768C23.8417 21.1974 23.9661 21.1528 24.0958 21.1528H35.4574C35.5871 21.1528 35.7114 21.1974 35.8031 21.2768C35.8948 21.3562 35.9463 21.4638 35.9463 21.5761V23.3753C35.9437 24.7911 35.2927 26.1482 34.1361 27.149C32.9794 28.1497 31.4116 28.7124 29.7766 28.7135ZM24.5846 21.9994V23.3753C24.5846 24.5676 25.1316 25.7111 26.1053 26.5543C27.079 27.3974 28.3996 27.8711 29.7766 27.8711C31.1536 27.8711 32.4742 27.3974 33.4478 26.5543C34.4215 25.7111 34.9685 24.5676 34.9685 23.3753V21.9994H24.5846Z" fill="#093F68"/>
<path d="M35.4574 21.576H46.8191V23.3752C46.8191 24.6799 46.2205 25.9311 45.1552 26.8536C44.0898 27.7761 42.6449 28.2944 41.1382 28.2944C39.6316 28.2944 38.1866 27.7761 37.1213 26.8536C36.0559 25.9311 35.4574 24.6799 35.4574 23.3752V21.576Z" fill="#FFBC0E"/>
<path d="M41.1382 28.7135C39.5032 28.7124 37.9354 28.1497 36.7787 27.149C35.6221 26.1482 34.9711 24.7911 34.9685 23.3753V21.5761C34.9685 21.4638 35.02 21.3562 35.1117 21.2768C35.2034 21.1974 35.3277 21.1528 35.4574 21.1528H46.8141C46.9438 21.1528 47.0682 21.1974 47.1598 21.2768C47.2515 21.3562 47.303 21.4638 47.303 21.5761V23.3753C47.3004 24.7904 46.6501 26.1469 45.4945 27.1475C44.339 28.1481 42.7724 28.7113 41.1382 28.7135ZM35.9463 21.9994V23.3753C35.9877 24.5432 36.5526 25.6513 37.5213 26.4647C38.49 27.2782 39.7864 27.7331 41.1358 27.7331C42.4852 27.7331 43.7816 27.2782 44.7503 26.4647C45.719 25.6513 46.2839 24.5432 46.3253 23.3753V21.9994H35.9463Z" fill="#093F68"/>
<path d="M7.54219 7.71613L1.37738 21.5761H12.739L16.435 7.71613H7.54219Z" fill="#F56132"/>
<path d="M12.739 21.9994H1.37733C1.29807 21.9992 1.22005 21.9823 1.15 21.9502C1.07995 21.9181 1.01996 21.8717 0.975222 21.8151C0.93048 21.7584 0.90232 21.6932 0.893165 21.625C0.88401 21.5568 0.894133 21.4877 0.922668 21.4237L7.08748 7.56375C7.12294 7.48419 7.18531 7.41576 7.26644 7.36741C7.34757 7.31907 7.44367 7.29307 7.54215 7.29282H16.4349C16.5098 7.29107 16.5841 7.30425 16.6522 7.33132C16.7202 7.35839 16.7802 7.39863 16.8274 7.44895C16.8747 7.49926 16.9079 7.5583 16.9246 7.62151C16.9413 7.68473 16.9411 7.75042 16.9238 7.81352L13.223 21.6692C13.1983 21.764 13.1367 21.8485 13.0486 21.9087C12.9605 21.9688 12.8511 22.0008 12.739 21.9994ZM2.0911 21.1528H12.3576L15.8336 8.13948H7.87948L2.0911 21.1528Z" fill="#093F68"/>
<path d="M16.435 7.71613L12.739 21.5761H24.0958L25.3326 7.71613H16.435Z" fill="#FFBC0E"/>
<path d="M24.0958 21.9994H12.739C12.6642 22.0011 12.5899 21.988 12.5218 21.9609C12.4538 21.9338 12.3938 21.8936 12.3465 21.8433C12.2993 21.7929 12.266 21.7339 12.2493 21.6707C12.2326 21.6075 12.2329 21.5418 12.2501 21.4787L15.951 7.62299C15.9758 7.52749 16.0381 7.4424 16.1273 7.3822C16.2164 7.322 16.3269 7.2904 16.4399 7.29279H25.3278C25.3956 7.29239 25.4628 7.30423 25.5251 7.32756C25.5874 7.35088 25.6434 7.38517 25.6895 7.42826C25.7353 7.47136 25.7702 7.52221 25.792 7.57759C25.8139 7.63297 25.8223 7.69167 25.8166 7.74999L24.5847 21.6099C24.5748 21.7162 24.519 21.8154 24.4283 21.8876C24.3377 21.9598 24.2189 21.9997 24.0958 21.9994ZM13.3404 21.1527H23.6362L24.79 8.13946H16.8261L13.3404 21.1527Z" fill="#093F68"/>
<path d="M25.3326 7.71613L24.0958 21.5761H35.4574L34.2205 7.71613H25.3326Z" fill="#F56132"/>
<path d="M35.4574 21.9994H24.0958C24.0287 21.9992 23.9624 21.9871 23.901 21.9638C23.8397 21.9405 23.7844 21.9065 23.7389 21.8639C23.6931 21.8208 23.6582 21.77 23.6364 21.7146C23.6145 21.6592 23.6061 21.6005 23.6118 21.5422L24.8437 7.68225C24.8536 7.57595 24.9094 7.47678 25.0001 7.40458C25.0907 7.33237 25.2095 7.29245 25.3326 7.29279H34.2303C34.3534 7.29245 34.4722 7.33237 34.5629 7.40458C34.6535 7.47678 34.7093 7.57595 34.7192 7.68225L35.9512 21.5422C35.9568 21.6005 35.9484 21.6592 35.9265 21.7146C35.9047 21.77 35.8698 21.8208 35.824 21.8639C35.7773 21.9075 35.7206 21.9421 35.6574 21.9655C35.5942 21.9888 35.5261 22.0004 35.4574 21.9994ZM24.6237 21.1527H34.9294L33.7707 8.13945H25.7824L24.6237 21.1527Z" fill="#093F68"/>
<path d="M34.2205 7.71613L35.4574 21.5761H46.8141L43.1182 7.71613H34.2205Z" fill="#FFBC0E"/>
<path d="M46.8142 21.9994H35.4574C35.3343 21.9997 35.2155 21.9598 35.1249 21.8876C35.0342 21.8154 34.9784 21.7162 34.9686 21.6099L33.7366 7.74999C33.7309 7.69167 33.7393 7.63297 33.7612 7.57759C33.7831 7.52221 33.818 7.47136 33.8637 7.42826C33.9098 7.38517 33.9658 7.35088 34.0281 7.32756C34.0904 7.30423 34.1576 7.29239 34.2255 7.29279H43.1182C43.2312 7.2904 43.3417 7.322 43.4308 7.3822C43.52 7.4424 43.5823 7.52749 43.6071 7.62299L47.308 21.4787C47.3252 21.5418 47.3255 21.6075 47.3088 21.6707C47.2921 21.7339 47.2588 21.7929 47.2115 21.8433C47.1643 21.8936 47.1044 21.9338 47.0363 21.9609C46.9683 21.988 46.8939 22.0011 46.8191 21.9994H46.8142ZM35.9072 21.1527H46.2031L42.7271 8.13946H34.7534L35.9072 21.1527Z" fill="#093F68"/>
<path d="M43.1182 7.71613L46.8142 21.5761H58.1758L52.011 7.71613H43.1182Z" fill="#F56132"/>
<path d="M58.1758 21.9994H46.8142C46.7012 22.0018 46.5907 21.9702 46.5016 21.91C46.4124 21.8498 46.3502 21.7647 46.3253 21.6692L42.6245 7.81352C42.6072 7.75042 42.6069 7.68473 42.6237 7.62151C42.6404 7.5583 42.6736 7.49926 42.7209 7.44895C42.7681 7.39863 42.8281 7.35839 42.8961 7.33132C42.9642 7.30425 43.0385 7.29107 43.1134 7.29282H52.0061C52.1046 7.29307 52.2007 7.31907 52.2818 7.36741C52.363 7.41576 52.4253 7.48419 52.4608 7.56375L58.6207 21.4237C58.6493 21.4877 58.6594 21.5568 58.6502 21.625C58.6411 21.6932 58.6129 21.7584 58.5682 21.8151C58.5234 21.8717 58.4634 21.9181 58.3934 21.9502C58.3233 21.9823 58.2453 21.9992 58.1661 21.9994H58.1758ZM47.2053 21.1528H57.4718L51.6737 8.13948H43.7293L47.2053 21.1528Z" fill="#093F68"/>
<path d="M46.8141 21.576H58.1758V23.3752C58.1758 24.6799 57.5773 25.9311 56.5119 26.8536C55.4466 27.7761 54.0016 28.2944 52.495 28.2944C50.9883 28.2944 49.5434 27.7761 48.478 26.8536C47.4127 25.9311 46.8141 24.6799 46.8141 23.3752V21.576Z" fill="#F56132"/>
<path d="M52.495 28.7135C50.8599 28.7124 49.2921 28.1497 48.1355 27.149C46.9788 26.1482 46.3278 24.7911 46.3253 23.3753V21.5761C46.3253 21.4638 46.3768 21.3562 46.4684 21.2768C46.5601 21.1974 46.6845 21.1528 46.8141 21.1528H58.1758C58.3054 21.1528 58.4298 21.1974 58.5215 21.2768C58.6132 21.3562 58.6647 21.4638 58.6647 21.5761V23.3753C58.6621 24.7911 58.0111 26.1482 56.8544 27.149C55.6978 28.1497 54.13 28.7124 52.495 28.7135ZM47.303 21.9994V23.3753C47.303 24.5676 47.85 25.7111 48.8237 26.5543C49.7974 27.3974 51.118 27.8711 52.495 27.8711C53.8719 27.8711 55.1925 27.3974 56.1662 26.5543C57.1399 25.7111 57.6869 24.5676 57.6869 23.3753V21.9994H47.303Z" fill="#093F68"/>
<path d="M38.5765 55.5274H20.9816C19.4102 55.5274 18.1363 56.6305 18.1363 57.9912V58.8548C18.1363 60.2155 19.4102 61.3186 20.9816 61.3186H38.5765C40.1479 61.3186 41.4218 60.2155 41.4218 58.8548V57.9912C41.4218 56.6305 40.1479 55.5274 38.5765 55.5274Z" fill="#70CC40"/>
<path d="M38.5765 61.7462H20.9767C20.0937 61.7439 19.2476 61.4389 18.6237 60.8978C17.9997 60.3567 17.6487 59.6237 17.6474 58.859V58.0124C17.6487 57.2481 17.9999 56.5155 18.624 55.9751C19.248 55.4347 20.0941 55.1306 20.9767 55.1295H38.5765C39.4591 55.1306 40.3051 55.4347 40.9292 55.9751C41.5533 56.5155 41.9045 57.2481 41.9058 58.0124V58.859C41.9045 59.6237 41.5535 60.3567 40.9295 60.8978C40.3056 61.4389 39.4595 61.7439 38.5765 61.7462ZM20.9767 55.955C20.3534 55.9561 19.7561 56.171 19.3153 56.5526C18.8746 56.9342 18.6265 57.4515 18.6252 57.9912V58.8379C18.6252 59.3783 18.8728 59.8966 19.3136 60.2792C19.7545 60.6617 20.3526 60.8772 20.9767 60.8783H38.5765C39.2006 60.8772 39.7987 60.6617 40.2396 60.2792C40.6804 59.8966 40.928 59.3783 40.928 58.8379V57.9912C40.9267 57.4515 40.6786 56.9342 40.2378 56.5526C39.7971 56.171 39.1997 55.9561 38.5765 55.955H20.9767Z" fill="#093F68"/>
<path d="M32.6806 39.7117C32.5509 39.7117 32.4266 39.6671 32.3349 39.5877C32.2432 39.5083 32.1917 39.4006 32.1917 39.2883V34.4877C32.1917 33.777 31.8656 33.0954 31.2853 32.5929C30.7049 32.0904 29.9178 31.808 29.0971 31.808C28.2763 31.808 27.4892 32.0904 26.9088 32.5929C26.3285 33.0954 26.0024 33.777 26.0024 34.4877V39.2883C26.0024 39.4006 25.9509 39.5083 25.8592 39.5877C25.7676 39.6671 25.6432 39.7117 25.5135 39.7117C25.3839 39.7117 25.2595 39.6671 25.1678 39.5877C25.0762 39.5083 25.0247 39.4006 25.0247 39.2883V34.4877C25.0247 34.0246 25.13 33.5661 25.3346 33.1382C25.5393 32.7104 25.8393 32.3217 26.2174 31.9942C26.5956 31.6668 27.0445 31.407 27.5386 31.2298C28.0327 31.0526 28.5623 30.9614 29.0971 30.9614C29.6318 30.9614 30.1614 31.0526 30.6555 31.2298C31.1496 31.407 31.5985 31.6668 31.9767 31.9942C32.3548 32.3217 32.6548 32.7104 32.8595 33.1382C33.0641 33.5661 33.1694 34.0246 33.1694 34.4877V39.2883C33.1694 39.4006 33.1179 39.5083 33.0263 39.5877C32.9346 39.6671 32.8102 39.7117 32.6806 39.7117Z" fill="#093F68"/>
<path d="M19.7887 38.0099H23.4895V51.438H18.5029V39.1233C18.5029 38.828 18.6384 38.5448 18.8795 38.336C19.1206 38.1272 19.4477 38.0099 19.7887 38.0099Z" fill="white"/>
<path d="M23.4895 51.8613H18.5029C18.3733 51.8613 18.2489 51.8167 18.1572 51.7374C18.0655 51.658 18.014 51.5503 18.014 51.438V39.1232C18.0153 38.716 18.2027 38.3258 18.5352 38.0379C18.8678 37.7499 19.3184 37.5877 19.7887 37.5865H23.4895C23.6192 37.5865 23.7435 37.6311 23.8352 37.7105C23.9269 37.7899 23.9784 37.8976 23.9784 38.0099V51.438C23.9784 51.5503 23.9269 51.658 23.8352 51.7374C23.7435 51.8167 23.6192 51.8613 23.4895 51.8613ZM18.9918 51.0147H23.0006V38.4332H19.7887C19.5773 38.4332 19.3746 38.5059 19.2252 38.6353C19.0758 38.7647 18.9918 38.9402 18.9918 39.1232V51.0147Z" fill="#093F68"/>
<path d="M23.7096 38.0099H39.7645C40.1055 38.0099 40.4325 38.1272 40.6737 38.336C40.9148 38.5448 41.0502 38.828 41.0502 39.1233V51.438H22.3065V39.2249C22.3065 38.9026 22.4543 38.5936 22.7174 38.3657C22.9805 38.1379 23.3374 38.0099 23.7096 38.0099Z" fill="white"/>
<path d="M41.0502 51.8613H22.3064C22.1768 51.8613 22.0524 51.8167 21.9608 51.7374C21.8691 51.658 21.8176 51.5503 21.8176 51.438V39.2249C21.8189 38.7907 22.0186 38.3746 22.3731 38.0676C22.7277 37.7606 23.2082 37.5877 23.7095 37.5865H39.7645C40.2347 37.5877 40.6854 37.7499 41.0179 38.0379C41.3504 38.3258 41.5378 38.716 41.5391 39.1232V51.438C41.5391 51.5503 41.4876 51.658 41.3959 51.7374C41.3042 51.8167 41.1799 51.8613 41.0502 51.8613ZM22.7953 51.0147H40.5613V39.1232C40.5613 38.9402 40.4774 38.7647 40.3279 38.6353C40.1785 38.5059 39.9758 38.4332 39.7645 38.4332H23.7095C23.4671 38.4332 23.2345 38.5166 23.0631 38.6651C22.8917 38.8135 22.7953 39.0149 22.7953 39.2249V51.0147Z" fill="#093F68"/>
<path d="M35.1885 41.079C35.0588 41.079 34.9345 41.0344 34.8428 40.955C34.7511 40.8757 34.6996 40.768 34.6996 40.6557V34.4877C34.6996 33.777 34.3736 33.0954 33.7932 32.5929C33.2129 32.0904 32.4257 31.808 31.605 31.808C30.7842 31.808 29.9971 32.0904 29.4167 32.5929C28.8364 33.0954 28.5104 33.777 28.5104 34.4877V40.6557C28.5104 40.768 28.4589 40.8757 28.3672 40.955C28.2755 41.0344 28.1511 41.079 28.0215 41.079C27.8918 41.079 27.7675 41.0344 27.6758 40.955C27.5841 40.8757 27.5326 40.768 27.5326 40.6557V34.4877C27.5326 33.5525 27.9616 32.6555 28.7254 31.9942C29.4891 31.3329 30.5249 30.9614 31.605 30.9614C32.6851 30.9614 33.7209 31.3329 34.4846 31.9942C35.2483 32.6555 35.6774 33.5525 35.6774 34.4877V40.6557C35.6774 40.768 35.6259 40.8757 35.5342 40.955C35.4425 41.0344 35.3182 41.079 35.1885 41.079Z" fill="#093F68"/>
<path d="M27.5962 58.9733C27.6012 59.1032 27.5658 59.2319 27.4935 59.3459C27.4262 59.4429 27.3343 59.5255 27.2246 59.5871C27.1062 59.6478 26.9775 59.6921 26.8433 59.7184C26.7002 59.7441 26.5544 59.7568 26.4082 59.7565H25.1713V57.0641H26.4082C26.5314 57.0649 26.6542 57.0762 26.7749 57.098C26.8968 57.1179 27.014 57.1551 27.122 57.208C27.2233 57.2604 27.3088 57.333 27.3713 57.4197C27.4386 57.5227 27.4708 57.6401 27.4642 57.7584C27.4707 57.8913 27.4221 58.0219 27.3273 58.1267C27.2295 58.2267 27.1005 58.3002 26.9558 58.3383C27.0423 58.3499 27.1264 58.3727 27.2051 58.4061C27.2795 58.4404 27.3471 58.4847 27.4055 58.5373C27.464 58.5931 27.5104 58.6577 27.5424 58.7278C27.5803 58.8054 27.5986 58.8891 27.5962 58.9733ZM26.7406 57.843C26.7434 57.8038 26.7339 57.7647 26.7133 57.7297C26.6927 57.6947 26.6616 57.6651 26.6233 57.6441C26.5112 57.5958 26.3865 57.5739 26.2615 57.5806H25.8949V58.1267H26.3006C26.4144 58.1341 26.5278 58.1088 26.6233 58.0547C26.6644 58.0279 26.6968 57.9924 26.7173 57.9516C26.7379 57.9108 26.7459 57.8661 26.7406 57.8219V57.843ZM26.8433 58.9141C26.8484 58.867 26.8372 58.8197 26.8111 58.7782C26.785 58.7367 26.7451 58.7029 26.6966 58.6812C26.5753 58.6345 26.4431 58.6128 26.3104 58.6177H25.8949V59.2316H26.3153C26.3755 59.2357 26.436 59.2357 26.4962 59.2316C26.5557 59.2237 26.6134 59.208 26.6673 59.185C26.7182 59.162 26.7619 59.1286 26.7944 59.0876C26.8382 59.0303 26.8557 58.9608 26.8433 58.8929V58.9141Z" fill="white"/>
<path d="M31.7321 59.1638C31.6709 59.293 31.5793 59.4098 31.4632 59.5067C31.3401 59.6043 31.1954 59.6792 31.0379 59.7269C30.8628 59.783 30.6771 59.8103 30.4903 59.8073C30.3004 59.8103 30.1115 59.783 29.933 59.7269C29.7784 59.6791 29.6369 59.6042 29.5175 59.5067C29.4044 59.4085 29.3147 59.292 29.2535 59.1638C29.1938 59.0286 29.1624 58.8853 29.1606 58.7405V57.0472H29.9086V58.6728C29.9072 58.7431 29.9188 58.8131 29.9428 58.8802C29.9613 58.9445 29.9946 59.005 30.0406 59.058C30.0895 59.1101 30.1513 59.1521 30.2215 59.1808C30.3079 59.2129 30.4012 59.2288 30.4952 59.2273C30.5876 59.2283 30.6792 59.2124 30.7641 59.1808C30.8343 59.1521 30.8961 59.1101 30.945 59.058C30.995 59.0066 31.0302 58.9457 31.0477 58.8802C31.0677 58.8124 31.0775 58.7427 31.077 58.6728V57.0472H31.8299V58.7405C31.8288 58.8857 31.7956 59.0294 31.7321 59.1638Z" fill="white"/>
<path d="M34.9343 58.5966V59.7354H34.1765V58.5966L33.0081 57.043H33.9174L34.5823 58.042L35.2423 57.043H36.1321L34.9343 58.5966Z" fill="white"/>
</svg>
