<svg width="28" height="30" viewBox="0 0 28 30" fill="none" xmlns="http://www.w3.org/2000/svg">
<path d="M22.1855 16.756C21.698 15.608 20.5955 14.926 19.6355 15.296C19.3985 14.398 18.7115 13.802 18.005 13.666C17.2985 13.53 16.5785 13.788 15.9275 14.18C15.6696 13.8494 15.3525 13.6126 15.0063 13.4922C14.6602 13.3718 14.2967 13.3717 13.9505 13.4921C13.6044 13.6125 13.2872 13.8493 13.0293 14.1799C12.7714 14.5104 12.5814 14.9236 12.4775 15.38C12.4546 15.5664 12.3909 15.7396 12.2945 15.878C12.177 15.9779 12.0393 16.0275 11.9 16.02C10.991 16.114 9.86152 16.82 9.12352 17.556C8.55652 18.116 8.37352 19.1 8.32102 19.992C8.22802 21.76 8.60152 24.108 9.52102 25.456C10.5215 26.922 12.047 27.612 13.5335 27.67C15.02 27.728 16.4885 27.216 17.9 26.6C20.348 25.526 22.8005 24.05 24.6755 21.634C25.4615 20.624 26.213 19.434 25.2095 18.28C24.809 17.82 24.386 17.408 23.8595 17.244C23.735 17.206 22.3265 17.13 22.3805 17.428C22.339 17.1931 22.2734 16.967 22.1855 16.756Z" fill="#725858"/>
<path d="M13.76 27.876C13.683 27.876 13.6065 27.876 13.5305 27.876C11.8565 27.812 10.355 26.982 9.41152 25.598C8.42902 24.158 8.08102 21.742 8.17252 19.986C8.23552 18.776 8.52652 17.906 9.03652 17.404C9.75802 16.692 10.9205 15.93 11.8865 15.828H11.909C12.0098 15.8338 12.1097 15.8012 12.197 15.734C12.2602 15.6378 12.3023 15.5201 12.3185 15.394L12.3335 15.332C12.4423 14.8548 12.639 14.4215 12.9056 14.0717C13.1723 13.7219 13.5004 13.4668 13.8601 13.3295C14.2197 13.1923 14.5994 13.1774 14.9645 13.2861C15.3295 13.3948 15.6684 13.6238 15.95 13.952C16.7 13.516 17.402 13.352 18.02 13.476C18.791 13.624 19.4435 14.24 19.7195 15.076C20.2227 14.9563 20.7413 15.0456 21.2051 15.3318C21.669 15.6179 22.0557 16.0872 22.313 16.676C22.3715 16.818 22.4216 16.9657 22.463 17.118C22.895 16.952 23.846 17.052 23.8925 17.066C24.461 17.242 24.9065 17.688 25.3025 18.144C25.6475 18.544 25.8275 18.978 25.8365 19.448C25.8545 20.286 25.337 21.07 24.776 21.794C23.156 23.88 20.9855 25.472 17.942 26.806C16.7105 27.328 15.254 27.876 13.76 27.876ZM14.462 13.61C14.3021 13.6096 14.1428 13.6365 13.988 13.69C13.669 13.8064 13.3769 14.0276 13.1384 14.3333C12.9 14.639 12.7228 15.0195 12.623 15.44L12.6095 15.498C12.5806 15.7025 12.5046 15.8899 12.392 16.034C12.2583 16.1593 12.098 16.2245 11.9345 16.22H11.9135C11.003 16.314 9.90202 17.04 9.21352 17.718C8.77702 18.148 8.52802 18.918 8.47102 20.006C8.38552 21.622 8.71402 23.976 9.63202 25.322C10.5215 26.626 11.945 27.408 13.532 27.47C15.0605 27.526 16.5695 26.964 17.8475 26.404C20.8475 25.09 22.9805 23.526 24.566 21.484C25.0775 20.824 25.55 20.12 25.5365 19.436C25.5275 19.08 25.3865 18.75 25.106 18.426C24.7385 18.004 24.329 17.59 23.822 17.426C23.6555 17.38 22.73 17.364 22.5215 17.476C22.5118 17.518 22.4919 17.5546 22.465 17.5801C22.4382 17.6056 22.4057 17.6185 22.3727 17.6169C22.3398 17.6153 22.3081 17.5993 22.2827 17.5713C22.2572 17.5433 22.2394 17.5049 22.232 17.462C22.1926 17.2455 22.1305 17.0374 22.0475 16.844C21.581 15.746 20.5355 15.146 19.667 15.478C19.6302 15.4921 19.5908 15.4869 19.5567 15.4635C19.5227 15.4401 19.4967 15.4002 19.484 15.352C19.28 14.58 18.686 13.99 17.9735 13.854C17.387 13.74 16.7165 13.908 15.9785 14.352C15.9513 14.3683 15.9211 14.3733 15.8917 14.3666C15.8623 14.3598 15.8351 14.3415 15.8135 14.314C15.4453 13.8613 14.9628 13.61 14.462 13.61Z" fill="#093F68"/>
<path d="M0.171509 20.544H4.01301C4.01301 20.544 7.05951 14.422 9.25101 15.344C14.636 17.62 16.6385 19.006 18.002 19.962C18.626 20.4 18.0845 22.064 18.0845 22.064C20.5537 20.694 22.9317 19.0482 25.193 17.144C26.378 16.144 28.2635 17.532 27.743 19.284C27.2225 21.036 20.198 28.026 17.006 29.166C13.814 30.306 0.324509 29.244 0.324509 29.244L0.171509 20.544Z" fill="#FFC9B0"/>
<path d="M10.8755 29.902C6.15201 29.902 0.665007 29.478 0.311007 29.45C0.272804 29.447 0.236925 29.4246 0.210713 29.3874C0.184501 29.3502 0.169939 29.3011 0.170007 29.25L0.0200074 20.544C0.019694 20.5174 0.0233804 20.4909 0.0308507 20.4662C0.038321 20.4415 0.0494235 20.419 0.0635064 20.4C0.0770699 20.3806 0.0935747 20.3652 0.111932 20.3548C0.13029 20.3445 0.150084 20.3394 0.170007 20.34H3.93201C4.33701 19.54 7.14351 14.246 9.29451 15.154C14.7635 17.466 16.754 18.864 18.0695 19.788C18.59 20.152 18.464 21.134 18.3365 21.71C20.6842 20.3701 22.9496 18.7873 25.112 16.976C25.886 16.324 26.864 16.618 27.4295 17.246C27.9365 17.81 28.1045 18.6 27.8795 19.36C27.3395 21.16 20.279 28.206 17.0435 29.36C15.902 29.77 13.5065 29.902 10.8755 29.902ZM0.465507 29.062C1.90101 29.168 14.003 30.034 16.9655 28.978C20.0495 27.878 27.089 20.924 27.602 19.216C27.782 18.616 27.65 18.016 27.242 17.558C26.7725 17.036 25.9235 16.774 25.2755 17.318C23.0051 19.2267 20.6187 20.8785 18.1415 22.256C18.114 22.2702 18.0839 22.2732 18.0551 22.2646C18.0263 22.2561 18 22.2364 17.9795 22.208C17.9589 22.1797 17.9451 22.1439 17.9398 22.1051C17.9345 22.0663 17.9378 22.0263 17.9495 21.99C17.9495 21.976 18.4205 20.486 17.9345 20.146C16.628 19.228 14.6525 17.842 9.20901 15.546C7.15101 14.676 4.17201 20.6 4.14201 20.66C4.12828 20.6878 4.10957 20.7106 4.08757 20.7263C4.06556 20.7421 4.04097 20.7502 4.01601 20.75H0.324507L0.465507 29.062Z" fill="#093F68"/>
<path d="M16.427 23.15C15.695 23.15 14.777 22.914 13.6055 22.614L13.4915 22.584C11.841 22.1423 10.2084 21.5889 8.59999 20.926C8.58118 20.9181 8.56372 20.9054 8.5486 20.8885C8.53348 20.8716 8.52101 20.8509 8.51188 20.8276C8.50276 20.8043 8.49717 20.7788 8.49543 20.7527C8.49369 20.7265 8.49584 20.7001 8.50174 20.675C8.50765 20.6499 8.51721 20.6266 8.52987 20.6065C8.54253 20.5863 8.55804 20.5697 8.57552 20.5575C8.593 20.5453 8.61211 20.5379 8.63175 20.5356C8.65139 20.5333 8.67118 20.5361 8.69 20.544C10.2878 21.2061 11.9099 21.7588 13.55 22.2L13.664 22.23C15.947 22.816 17.204 23.14 17.972 21.95C17.9827 21.9244 17.9975 21.9023 18.0153 21.8852C18.0331 21.8681 18.0536 21.8564 18.0751 21.8509C18.0967 21.8455 18.1189 21.8464 18.1402 21.8537C18.1615 21.861 18.1813 21.8744 18.1983 21.893C18.2152 21.9116 18.2289 21.9349 18.2384 21.9614C18.2478 21.9878 18.2528 22.0167 18.253 22.0459C18.2531 22.0752 18.2485 22.1042 18.2393 22.1308C18.2302 22.1574 18.2168 22.1811 18.2 22.2C17.75 22.896 17.1875 23.15 16.427 23.15Z" fill="#093F68"/>
<path d="M26 0.726011C26 0.726011 23.9975 -0.673988 20.654 1.59601C18.092 3.33601 17.6225 7.35001 17.5415 9.12801C17.471 7.71001 16.9415 4.86001 14.048 2.74001C10.0415 -0.193989 6.85701 3.44001 6.85701 3.44001C6.85701 3.44001 6.75801 8.65001 11.8805 10.008C14.591 10.726 16.013 10.684 16.7525 10.486C17.2625 12.47 16.7 16.6 16.7 16.6L18.0875 16.4C18.4895 14.548 18.2375 11.2 18.128 10.032C27.287 10.21 26 0.726011 26 0.726011Z" fill="white"/>
<path d="M16.7 16.8C16.6794 16.7999 16.6591 16.7942 16.6402 16.7832C16.6214 16.7722 16.6045 16.7561 16.5905 16.736C16.5744 16.7134 16.5625 16.6861 16.5557 16.6562C16.5489 16.6263 16.5475 16.5948 16.5515 16.564C16.5515 16.524 17.075 12.676 16.6505 10.706C15.9005 10.87 14.4785 10.892 11.8505 10.196C6.66349 8.82202 6.70399 3.48202 6.70549 3.42802C6.70591 3.39981 6.71081 3.37204 6.71986 3.34653C6.72891 3.32102 6.7419 3.29836 6.75799 3.28002C6.79099 3.24402 10.0685 -0.407981 14.1185 2.55602C16.3115 4.15602 17.1785 6.17802 17.51 7.73002C17.7635 5.73002 18.4955 2.82802 20.585 1.41002C23.9585 -0.88198 25.985 0.482019 26.069 0.540019C26.0892 0.554189 26.1068 0.574351 26.1203 0.598964C26.1338 0.623576 26.143 0.651987 26.147 0.68202C26.1665 0.83202 26.6225 4.36002 24.8705 7.11602C23.546 9.20002 21.335 10.242 18.2945 10.226C18.419 11.662 18.6125 14.686 18.23 16.448C18.2216 16.4858 18.205 16.5194 18.1823 16.5447C18.1596 16.57 18.1319 16.5857 18.1025 16.59L16.715 16.79L16.7 16.8ZM16.7525 10.278C16.7837 10.2778 16.8143 10.2906 16.8398 10.3146C16.8654 10.3386 16.8847 10.3727 16.895 10.412C17.345 12.154 16.997 15.412 16.8815 16.372L17.969 16.208C18.3305 14.342 18.0695 11.034 17.9795 10.048C17.9767 10.0198 17.9785 9.99109 17.9847 9.96384C17.9909 9.93659 18.0014 9.91142 18.0155 9.89002C18.0303 9.86956 18.048 9.85319 18.0675 9.84187C18.0871 9.83054 18.1082 9.82448 18.1295 9.82402C21.1625 9.88202 23.354 8.88402 24.6425 6.85802C26.1425 4.49602 25.9235 1.45802 25.865 0.85802C25.4945 0.65802 23.615 -0.197981 20.723 1.76802C18.209 3.47602 17.765 7.48802 17.6915 9.13402C17.6892 9.18496 17.6724 9.2328 17.6445 9.26775C17.6166 9.3027 17.5798 9.32211 17.5415 9.32202C17.5035 9.32215 17.4668 9.30301 17.439 9.26848C17.4111 9.23395 17.3941 9.1866 17.3915 9.13602C17.321 7.69202 16.781 4.96402 13.976 2.91002C10.376 0.27802 7.43299 3.08802 7.00699 3.53002C7.01899 4.23802 7.28599 8.58002 11.9105 9.80602C14.6525 10.532 16.0415 10.466 16.724 10.284C16.7325 10.2831 16.7411 10.2838 16.7495 10.286L16.7525 10.278Z" fill="#093F68"/>
<path d="M15.761 17.1C15.761 17.1 16.091 15.754 17.48 15.688C18.869 15.622 19.2335 16.608 19.2335 16.608" fill="#725858"/>
<path d="M15.761 17.3C15.7452 17.3006 15.7294 17.2972 15.7145 17.29C15.6767 17.2735 15.6454 17.2377 15.6274 17.1905C15.6094 17.1432 15.6062 17.0884 15.6185 17.038C15.6335 16.978 15.998 15.558 17.4755 15.488C18.953 15.418 19.3505 16.474 19.3685 16.52C19.386 16.5678 19.3886 16.6228 19.3756 16.6731C19.3627 16.7233 19.3353 16.7647 19.2995 16.788C19.2637 16.8114 19.2224 16.8148 19.1847 16.7975C19.147 16.7803 19.116 16.7438 19.0985 16.696C19.085 16.662 18.7475 15.828 17.486 15.896C16.2245 15.964 15.9065 17.158 15.9035 17.17C15.8927 17.2086 15.8732 17.2418 15.8477 17.2651C15.8222 17.2884 15.7919 17.3006 15.761 17.3Z" fill="#093F68"/>
<path d="M18.7895 8.65403C18.7637 8.6541 18.7384 8.64532 18.7159 8.62852C18.6934 8.61172 18.6745 8.58748 18.6611 8.55813C18.6477 8.52879 18.6402 8.49532 18.6393 8.46098C18.6384 8.42663 18.6441 8.39255 18.656 8.36203C18.674 8.31603 20.456 3.84803 24.2615 2.26403C24.2804 2.25599 24.3003 2.25304 24.3201 2.25533C24.3399 2.25763 24.3591 2.26513 24.3767 2.27741C24.3943 2.28969 24.4098 2.3065 24.4225 2.32686C24.4352 2.34722 24.4447 2.37073 24.4505 2.39603C24.4622 2.44669 24.4584 2.50147 24.4398 2.54835C24.4212 2.59523 24.3895 2.63036 24.3515 2.64603C20.666 4.17803 18.9395 8.50203 18.923 8.54603C18.9103 8.57864 18.8912 8.60597 18.8676 8.62502C18.8441 8.64407 18.817 8.65411 18.7895 8.65403Z" fill="#093F68"/>
<path d="M16.7 9.55203C16.6791 9.55197 16.6584 9.54606 16.6393 9.53469C16.6201 9.52333 16.603 9.50675 16.589 9.48603C14.189 5.98403 8.02549 4.00403 7.96399 3.98603C7.92421 3.97383 7.88969 3.94106 7.86803 3.89493C7.84637 3.84879 7.83934 3.79308 7.84849 3.74003C7.85764 3.68699 7.88222 3.64097 7.91682 3.61208C7.95142 3.5832 7.99321 3.57383 8.03299 3.58603C9.20275 3.97823 10.3546 4.45969 11.483 5.02803C13.9835 6.28803 15.7775 7.69403 16.8155 9.20603C16.8423 9.24507 16.8564 9.29666 16.8547 9.34951C16.853 9.40236 16.8357 9.45217 16.8065 9.48803C16.7929 9.50766 16.7764 9.52343 16.7581 9.53442C16.7398 9.54542 16.72 9.5514 16.7 9.55203Z" fill="#093F68"/>
</svg>
